<?xml version="1.0" encoding="UTF-8" standalone="no"?><!DOCTYPE svg PUBLIC "-//W3C//DTD SVG 1.1//EN" "http://www.w3.org/Graphics/SVG/1.1/DTD/svg11.dtd"><svg width="100%" height="100%" viewBox="0 0 4551 4551" version="1.1" xmlns="http://www.w3.org/2000/svg" xmlns:xlink="http://www.w3.org/1999/xlink" xml:space="preserve" xmlns:serif="http://www.serif.com/" style="fill-rule:evenodd;clip-rule:evenodd;stroke-linecap:round;stroke-linejoin:round;stroke-miterlimit:1.5;"><rect id="SVG" x="0" y="0" width="4550.17" height="4550.17" style="fill:none;"/><path d="M2373.18,359.881c499.679,80.418 952.919,307.687 1295.9,649.805c723.784,721.965 661.961,1888.37 -137.972,2603.08c-799.934,714.714 -2037,708.827 -2760.78,-13.138c-542.839,-541.473 -496.471,-1416.27 103.479,-1952.31c599.95,-536.036 1527.75,-531.62 2070.59,9.853c361.892,360.983 330.98,944.183 -68.986,1301.54c-399.967,357.357 -1018.5,354.413 -1380.39,-6.569c-180.946,-180.491 -165.491,-472.092 34.493,-650.77c199.983,-178.678 509.25,-177.207 690.196,3.285" style="fill:none;stroke:#000;stroke-width:510.72px;"/></svg>